<svg xmlns="http://www.w3.org/2000/svg" width="333" height="55" viewBox="0 0 333 55">
  <g id="Group_421" data-name="Group 421" transform="translate(-36 -37)">
    <text id="ITerview" transform="translate(156 58)" fill="#1d27ff" font-size="18" font-family="OpenSans-Bold, Open Sans" font-weight="700"><tspan x="-38.483" y="0">ITerview</tspan></text>
    <text id="Prepare_your_IT_Coding_Interview" data-name="Prepare your IT &amp; Coding Interview" transform="translate(118 63)" fill="#232323" font-size="16" font-family="SegoeUI, Segoe UI" opacity="0.75"><tspan x="0" y="17">Prepare your IT &amp; Coding Interview</tspan></text>
    <g id="Group_2" data-name="Group 2" transform="translate(-826.295 -185.997)">
      <path id="Path_1" data-name="Path 1" d="M902,223H875.6a13.3,13.3,0,0,0-13.3,13.3v26.4a13.3,13.3,0,0,0,13.3,13.3h26.4a13.3,13.3,0,0,0,13.3-13.3V236.3A13.3,13.3,0,0,0,902,223Zm.979,14.277a3.446,3.446,0,1,1-3.446,3.446A3.45,3.45,0,0,1,902.975,237.275Zm-12.084,7.685h.533c.547,0,.706-.4.706-.922V241.92a1.609,1.609,0,0,1,1.008-1.685v-.086a1.629,1.629,0,0,1-1.008-1.7V236.33c0-.5-.158-.922-.706-.922h-.533V234.3h1.124c1.023,0,1.585.749,1.585,2v2.118a1.112,1.112,0,0,0,.936,1.2v1.138a1.111,1.111,0,0,0-.936,1.2v2.118c0,1.224-.519,2.017-1.585,2.017h-1.124Zm-7.837-5.345a1.112,1.112,0,0,0,.936-1.2V236.3c0-1.253.562-2,1.585-2H886.7v1.109h-.533c-.547,0-.706.418-.706.922v2.118a1.629,1.629,0,0,1-1.009,1.7v.086a1.609,1.609,0,0,1,1.009,1.685v2.118c0,.519.158.922.706.922h.533v1.124h-1.124c-1.066,0-1.584-.792-1.584-2.017v-2.118a1.112,1.112,0,0,0-.937-1.2Zm-8.17-2.341a3.446,3.446,0,1,1-3.446,3.446A3.45,3.45,0,0,1,874.884,237.274Zm9.353,28.258h-4.923v-6.646H874.76a3.692,3.692,0,0,1-3.692-3.693v-5.415a3.7,3.7,0,0,1,3.835-3.69,3.752,3.752,0,0,1,3.55,3.781v4.094h3.685a2.1,2.1,0,0,1,2.1,2.1Zm5.419.121h-1.723V251.745H881.9v-1.723h13.785v1.723h-6.031Zm17.134-11.689v1.231a3.692,3.692,0,0,1-3.693,3.692h-4.554v6.646H893.62v-9.469a2.1,2.1,0,0,1,2.1-2.1h3.684v-4.094a3.752,3.752,0,0,1,3.55-3.78,3.7,3.7,0,0,1,3.835,3.69Z" transform="translate(0 0)" fill="#1d27ff"/>
      <path id="Path_2" data-name="Path 2" d="M992.1,300.8v2.118c0,1.225.519,2.017,1.584,2.017h1.124v-1.124h-.533c-.548,0-.706-.4-.706-.922v-2.118a1.609,1.609,0,0,0-1.009-1.685V299a1.629,1.629,0,0,0,1.009-1.7v-2.118c0-.5.159-.922.706-.922h.533v-1.109h-1.124c-1.023,0-1.585.749-1.585,2v2.118a1.112,1.112,0,0,1-.937,1.2v1.138A1.112,1.112,0,0,1,992.1,300.8Z" transform="translate(-108.108 -58.855)" fill="#fff"/>
      <path id="Path_3" data-name="Path 3" d="M1042.52,302.923V300.8a1.111,1.111,0,0,1,.936-1.2v-1.138a1.111,1.111,0,0,1-.936-1.2v-2.118c0-1.253-.562-2-1.585-2h-1.124v1.109h.533c.547,0,.706.418.706.922V297.3a1.629,1.629,0,0,0,1.008,1.7v.086a1.609,1.609,0,0,0-1.008,1.685v2.118c0,.519-.158.922-.706.922h-.533v1.124h1.124C1042,304.94,1042.52,304.147,1042.52,302.923Z" transform="translate(-148.92 -58.856)" fill="#fff"/>
      <path id="Path_4" data-name="Path 4" d="M997.8,390.756H984.011v1.723h6.031v13.908h1.723V392.479H997.8Z" transform="translate(-102.109 -140.734)" fill="#fff"/>
      <path id="Path_5" data-name="Path 5" d="M1066.086,366.329a3.752,3.752,0,0,0-3.55,3.78V374.2h-3.684a2.1,2.1,0,0,0-2.1,2.1v9.469h4.923v-6.646h4.554a3.693,3.693,0,0,0,3.693-3.692v-5.416A3.7,3.7,0,0,0,1066.086,366.329Zm1.82,8.941a1.476,1.476,0,0,1-1.476,1.475h-2.068v-6.6a1.772,1.772,0,0,1,3.544,0Z" transform="translate(-163.131 -120.24)" fill="#fff"/>
      <circle id="Ellipse_1" data-name="Ellipse 1" cx="3.446" cy="3.446" r="3.446" transform="translate(898.472 238.856) rotate(-22.498)" fill="#fff"/>
      <path id="Path_6" data-name="Path 6" d="M927.823,374.2h-3.685V370.1a3.752,3.752,0,0,0-3.55-3.781,3.7,3.7,0,0,0-3.835,3.69v5.416a3.692,3.692,0,0,0,3.692,3.693H925v6.646h4.923V376.3A2.1,2.1,0,0,0,927.823,374.2Zm-5.553,2.542H920.2a1.475,1.475,0,0,1-1.475-1.476v-5.129a1.772,1.772,0,1,1,3.544,0Z" transform="translate(-45.686 -120.234)" fill="#fff"/>
      <circle id="Ellipse_2" data-name="Ellipse 2" cx="3.446" cy="3.446" r="3.446" transform="translate(871.438 237.274)" fill="#fff"/>
      <path id="Path_7" data-name="Path 7" d="M930.771,379A1.772,1.772,0,0,0,929,380.768V385.9a1.475,1.475,0,0,0,1.475,1.476h2.068v-6.6A1.772,1.772,0,0,0,930.771,379Z" transform="translate(-55.959 -130.869)" fill="#1d27ff"/>
      <path id="Path_8" data-name="Path 8" d="M1105.77,379a1.772,1.772,0,0,0-1.772,1.772v6.6h2.069a1.476,1.476,0,0,0,1.476-1.475v-5.129A1.772,1.772,0,0,0,1105.77,379Z" transform="translate(-202.767 -130.876)" fill="#1d27ff"/>
    </g>
  </g>
</svg>
